<?xml version="1.0" encoding="UTF-8" standalone="no"?>
<!-- Created with Inkscape (http://www.inkscape.org/) -->

<svg
   xmlns:dc="http://purl.org/dc/elements/1.1/"
   xmlns:cc="http://creativecommons.org/ns#"
   xmlns:rdf="http://www.w3.org/1999/02/22-rdf-syntax-ns#"
   xmlns:svg="http://www.w3.org/2000/svg"
   xmlns="http://www.w3.org/2000/svg"
   xmlns:sodipodi="http://sodipodi.sourceforge.net/DTD/sodipodi-0.dtd"
   xmlns:inkscape="http://www.inkscape.org/namespaces/inkscape"
   version="1.1"
   id="svg2"
   width="500"
   height="154"
   viewBox="0 0 500 154"
   sodipodi:docname="logo-horizontal.svg"
   inkscape:version="0.92.3 (2405546, 2018-03-11)">
  <metadata
     id="metadata8">
    <rdf:RDF>
      <cc:Work
         rdf:about="">
        <dc:format>image/svg+xml</dc:format>
        <dc:type
           rdf:resource="http://purl.org/dc/dcmitype/StillImage" />
        <dc:title></dc:title>
      </cc:Work>
    </rdf:RDF>
  </metadata>
  <defs
     id="defs6" />
  <sodipodi:namedview
     pagecolor="#ffffff"
     bordercolor="#666666"
     borderopacity="1"
     objecttolerance="10"
     gridtolerance="10"
     guidetolerance="10"
     inkscape:pageopacity="0"
     inkscape:pageshadow="2"
     inkscape:window-width="1366"
     inkscape:window-height="713"
     id="namedview4"
     showgrid="false"
     inkscape:zoom="2"
     inkscape:cx="137.01818"
     inkscape:cy="179.8467"
     inkscape:window-x="0"
     inkscape:window-y="27"
     inkscape:window-maximized="1"
     inkscape:current-layer="svg2"
     inkscape:measure-start="0,0"
     inkscape:measure-end="0,0" />
  <rect
     style="opacity:1;fill:#ffffff;fill-opacity:1;stroke:#335ab8;stroke-width:0;stroke-miterlimit:4;stroke-dasharray:none;stroke-opacity:1"
     id="rect3147"
     width="602.20337"
     height="232.95761"
     x="-1486.4272"
     y="-311.5968" />
  <g
     id="g887"
     transform="matrix(0.98979115,0,0,1,-491.57527,-672.71611)"
     style="stroke-width:1.00514388">
    <rect
       y="671.9278"
       x="496.64545"
       height="154.78831"
       width="505.15707"
       id="rect879"
       style="opacity:1;fill:#000000;fill-opacity:1;fill-rule:evenodd;stroke:none;stroke-width:1.89948452;stroke-miterlimit:4;stroke-dasharray:none;stroke-opacity:1" />
    <path
       id="rect858"
       d="m 791.66992,696.44922 c -1.09006,0 -3.39901,6.05429 -20.01172,52.5 -9.98418,27.91373 -11.57552,31.5 -13.97656,31.5 -0.77986,0 -1.69524,0.45 -2.03516,1 -0.38803,0.62784 1.82338,1 5.94141,1 3.70601,0 6.55859,-0.43497 6.55859,-1 0,-0.55 -0.675,-1 -1.5,-1 -0.825,0 -1.47837,-0.3375 -1.45117,-0.75 0.0271,-0.4125 2.84648,-8.4 6.26367,-17.75 l 6.2129,-17 11.01171,-0.28125 11.01172,-0.2793 6.44727,17.70508 c 4.46162,12.25272 6.07207,17.8334 5.22656,18.11523 -0.67202,0.22401 -1.22266,0.82006 -1.22266,1.32422 0,0.50417 4.05,0.91602 9,0.91602 5.33333,0 9,-0.40741 9,-1 0,-0.55 -0.60595,-1 -1.3457,-1 -3.40704,0 -3.38257,0.0544 -23.20898,-54.25 -5.97392,-16.3625 -11.33867,-29.75 -11.92188,-29.75 z m 105.87305,0 c -0.62685,0 -4.65746,9.7875 -8.95703,21.75 -21.13939,58.8151 -21.86167,60.66072 -24.20703,61.82617 -4.13992,2.0572 -3.62427,2.42468 3.35156,2.39258 6.08296,-0.028 6.69758,-0.19772 5.10351,-1.40625 -1.71764,-1.30222 -1.48201,-2.29545 4.5,-18.9668 l 6.3125,-17.5918 11,0.0117 11,0.0117 6.25391,17.23633 c 3.43966,9.47973 6.252,17.57383 6.25,17.98633 -0.002,0.4125 -0.67891,0.75 -1.50391,0.75 -0.825,0 -1.5,0.45 -1.5,1 0,0.59649 3.83333,1 9.5,1 8.7253,0 12.24663,-1.04895 7.60157,-2.26367 -1.04399,-0.273 -2.58963,-1.5616 -3.43555,-2.86524 -1.28419,-1.97905 -13.53254,-34.71886 -26.98242,-72.12109 -1.73058,-4.8125 -3.66026,-8.75 -4.28711,-8.75 z m -148.70508,1.08203 c -5.63746,-0.0522 -8.58693,0.27801 -8.19141,0.91797 0.33992,0.55 1.27783,1 2.08399,1 2.88307,0 3.41601,5.31836 3.41601,34.07422 0,33.44441 1.12754,31.55383 -11,18.4414 -4.125,-4.45999 -14.02511,-15.0633 -22,-23.5625 -7.97489,-8.49918 -17.64989,-18.89247 -21.5,-23.0957 l -7,-7.64258 -9,-0.002 c -8.29926,-0.003 -8.70949,0.0873 -5.27148,1.15625 5.17113,1.60775 6.5787,3.33826 7.75391,9.53516 1.08683,5.73079 1.4077,65.03358 0.37304,68.89648 -0.40248,1.50264 -1.60511,2.49835 -3.46875,2.87109 -5.24622,1.04932 -1.85732,2.32813 6.17188,2.32813 4.62732,0 7.9414,-0.41729 7.9414,-1 0,-0.55 -0.45,-1 -1,-1 -0.55,0 -1.9,-0.9 -3,-2 -1.9156,-1.91557 -2,-3.33399 -2,-33.58399 0,-17.37084 0.37186,-31.43334 0.82618,-31.25 0.45432,0.18333 7.73439,7.75899 16.17773,16.83399 8.44334,9.075 18.7853,20.1 22.98242,24.5 10.9777,11.50834 19.35307,20.44499 23.18164,24.73437 l 3.33203,3.73243 0.52735,-41.23243 c 0.29029,-22.67845 0.62779,-41.3465 0.75,-41.48242 0.1222,-0.13592 1.68515,-0.88626 3.47265,-1.66797 3.13659,-1.3717 2.94303,-1.42325 -5.55859,-1.50195 z m 96.61719,0.0234 c -9.672,0.0871 -11.30414,0.30578 -9.02539,1.20508 1.53024,0.6039 3.01336,2.02274 3.29687,3.15234 0.2835,1.12959 0.38053,22.74943 0.2168,48.04492 -0.2842,43.90265 -0.38773,46.14549 -2.29688,49.38672 -3.17259,5.38621 -6.89419,7.6174 -12.57421,7.5332 -5.65134,-0.0838 -6.41379,1.05906 -1.67579,2.51367 5.18598,1.59214 14.37627,0.57302 18.14844,-2.01171 4.63455,-3.17565 7.41224,-7.65824 8.58789,-13.85743 0.58564,-3.08808 1.01367,-23.40681 1.01367,-48.12695 0,-23.52995 0.27358,-43.4933 0.60743,-44.36328 0.33384,-0.86999 1.4327,-1.58203 2.4414,-1.58203 1.0087,0 2.11125,-0.45 2.45117,-1 0.40005,-0.64729 -3.54755,-0.96343 -11.1914,-0.89453 z m -56.82227,17.11914 c 0.12807,-0.15192 2.05302,4.79808 4.27735,11 2.22433,6.20192 4.36128,12.06289 4.74804,13.02539 0.64086,1.59483 -0.15909,1.75 -9.01172,1.75 -8.85121,0 -9.65102,-0.15543 -9.01367,-1.75 0.38471,-0.9625 2.51361,-6.7 4.73242,-12.75 2.21882,-6.05 4.13951,-11.12347 4.26758,-11.27539 z m 106.14649,0.29883 c 0.0251,-0.006 0.0434,0.007 0.0547,0.041 0.18122,0.54365 2.29387,6.4899 4.69336,13.21289 l 4.36133,12.22266 h -9.47851 c -8.62534,0 -9.41595,-0.15751 -8.78321,-1.75 0.38243,-0.9625 2.53708,-6.90875 4.78711,-13.21289 2.1094,-5.91013 3.98915,-10.42077 4.36524,-10.51367 z m 24.32031,79.40625 c -0.61007,-0.0366 -0.95313,0.3064 -0.95313,1.07031 0,0.55 0.45,1 1,1 1.404,0 1.26953,11.7159 -0.14453,12.58984 -0.79035,0.48846 -0.98817,-0.11312 -0.63867,-1.9414 0.42725,-2.23503 0.15187,-2.64844 -1.76172,-2.64844 -1.77534,0 -2.1536,0.43421 -1.74414,2 0.43945,1.68046 0.0305,2 -2.55859,2 -3.32141,0 -5.15235,-2.16921 -5.15235,-6.10547 0,-4.59204 5.79433,-7.69982 8.78321,-4.71094 0.65084,0.65084 1.49781,0.86742 1.88281,0.48242 1.30444,-1.30444 -1.64816,-3.0664 -5.13867,-3.0664 -6.39117,0 -10.76686,6.92764 -7.2461,11.47265 2.18725,2.82355 5.12201,3.86559 10.96875,3.89649 l 5.75,0.0312 v -5.41211 -5.41211 l 5.48047,5.66211 5.47852,5.66211 0.0215,-6.66797 c 0.0111,-3.66752 0.29311,-7.38002 0.62696,-8.25 0.39831,-1.03799 0.0545,-1.58203 -1,-1.58203 -1.26708,0 -1.61445,1.11047 -1.64453,5.25 l -0.0391,5.25 -4.89843,-5.25 c -3.09854,-3.32134 -5.73009,-5.23981 -7.07227,-5.32031 z m -24.64649,0.42773 c -0.7595,0.0367 -1.54644,0.23606 -2.26953,0.62305 -3.34977,1.79275 -2.6217,5.74241 1.50586,8.17773 1.94817,1.14945 3.37366,2.59535 3.16993,3.21485 -0.63705,1.9369 -4.78262,1.90869 -6.26172,-0.043 -1.291,-1.70341 -1.39033,-1.6396 -1.41993,0.91992 -0.0286,2.47146 0.31519,2.75 3.39649,2.75 1.88572,0 4.13572,-0.70798 5,-1.57227 2.72777,-2.72777 1.2214,-6.79753 -2.90039,-7.83203 -1.63822,-0.41117 -2.52735,-1.33069 -2.52735,-2.61523 0,-2.23681 2.87699,-2.70505 4.80079,-0.78125 0.93333,0.93333 1.19921,0.83817 1.19921,-0.43164 0,-1.34175 -1.3241,-2.24194 -2.94531,-2.39258 -0.24318,-0.0226 -0.49486,-0.0298 -0.74805,-0.0176 z m -32.80664,0.5625 v 7.54102 7.53906 h 4.70313 c 2.58663,0 5.83573,-0.51546 7.2207,-1.14649 1.48311,-0.67576 2.98723,-2.57035 3.66016,-4.60937 0.98641,-2.98885 0.87542,-3.82373 -0.82227,-6.10352 -1.71482,-2.30277 -2.78661,-2.6768 -8.36523,-2.92968 z m 21.75,0.082 -4.75,0.002 v 7.49805 7.5 l 4.75,-0.002 c 3.22885,-5.6e-4 4.75,-0.41569 4.75,-1.29883 0,-0.89562 -1.08631,-1.17241 -3.5,-0.89062 -3.21019,0.37477 -3.5,0.19215 -3.5,-2.20118 0,-2.23269 0.43312,-2.60937 3,-2.60937 1.65,0 3,-0.45 3,-1 0,-0.55 -1.35,-1 -3,-1 -2.57312,0 -3,-0.37437 -3,-2.63086 0,-2.4482 0.24299,-2.59104 3.5,-2.0625 1.925,0.31238 3.5,0.14628 3.5,-0.36914 0,-0.51542 -2.1375,-0.93655 -4.75,-0.93555 z m 18.75,0 c -1.19986,10e-4 -1.5,1.50164 -1.5,7.5 0,5.99897 0.30001,7.49813 1.5,7.49805 1.19999,-8e-5 1.5,-1.50004 1.5,-7.5 0,-6.00058 -0.29988,-7.49905 -1.5,-7.49805 z m -34.93359,0.99805 c 2.3527,0 6.07778,1.76768 7.16797,3.40039 1.24651,1.86684 0.84319,5.37751 -0.80664,7.02734 -0.86428,0.86429 -3.11428,1.57227 -5,1.57227 h -3.42774 v -6 c 0,-5.39698 0.20828,-6 2.06641,-6 z"
       style="opacity:1;fill:#ffffff;fill-opacity:1;fill-rule:evenodd;stroke:none;stroke-width:1.89948452;stroke-miterlimit:4;stroke-dasharray:none;stroke-opacity:1"
       inkscape:connector-curvature="0" />
    <g
       style="stroke:none;stroke-width:0.10069583;stroke-miterlimit:4;stroke-dasharray:none;stroke-opacity:1"
       transform="matrix(0.99838709,0,0,0.99800907,497.45086,671.93874)"
       id="g877">
      <rect
         style="opacity:1;fill:#ffffff;fill-opacity:1;fill-rule:evenodd;stroke:none;stroke-width:0.10069583;stroke-miterlimit:4;stroke-dasharray:none;stroke-opacity:1"
         id="rect816"
         width="155"
         height="155"
         x="0"
         y="0" />
      <path
         inkscape:connector-curvature="0"
         style="fill:#da252e;fill-opacity:1;stroke:none;stroke-width:0.10069583;stroke-miterlimit:4;stroke-dasharray:none;stroke-opacity:1"
         d="m 37.30469,12.916012 v 6.044922 c 0,4.46557 -0.65315,7.333936 -2.5,10.978516 -0.0749,0.147746 -0.13775,0.29156 -0.21094,0.439453 v 2.138672 C 40.22847,20.40486 49.40232,13.023056 56.48438,14.978512 c 7.23039,1.996401 17.11324,15.517809 18.44531,25.236329 0.79873,5.82742 -0.76078,10.330341 -6.07617,17.550781 -6.52395,8.86215 -6.75672,9.581082 -7.52149,23.324218 -0.71177,12.79074 -0.71359,12.80423 -5.87109,23.41211 -2.83805,5.83727 -5.43089,12.30608 -5.76172,14.375 -0.41862,2.61789 0.0123,4.95356 1.18945,6.96289 h 2.39258 l -0.22265,-0.20703 2.22265,-1.67578 c 2.21795,-1.673 15.73059,-5.11553 28.02344,-7.14063 10.4026,-1.71371 24.58927,-0.1936 32.50586,3.0918 V 14.615231 l -0.006,-1.175781 -39.25,-0.261719 z m 6.00586,12.140626 c -0.42297,0.06389 -0.97993,0.675203 -2.05664,1.892578 -2.86856,3.24332 -4.95702,8.218284 -4.91602,11.708984 0.0253,2.15873 0.4456,1.584183 1.87696,-2.560547 1.0146,-2.93791 2.52136,-6.01746 3.34765,-6.84375 1.33645,-1.33645 2.01012,-0.993787 6.10547,3.101563 2.53203,2.53203 4.88476,5.72408 5.22852,7.09375 0.34376,1.36967 0.85329,2.490234 1.13281,2.490234 0.27954,0 0.26946,-0.917059 -0.0234,-2.037109 -0.39088,-1.49472 0.75916,-3.327518 4.32422,-6.892579 4.71199,-4.71199 4.90791,-4.801576 6.56836,-2.966796 0.94139,1.04022 2.52938,4.255751 3.52734,7.144531 1.52244,4.40697 1.81522,4.769103 1.82422,2.251953 0.0133,-3.73326 -2.97057,-10.384493 -5.77929,-12.882812 -2.08689,-1.856252 -2.12866,-1.84734 -3.06641,0.61914 -1.17129,3.08062 -5.69585,6.763672 -8.31059,6.763672 -2.01582,0 -6.60558,-4.028914 -8.53125,-7.490234 -0.54129,-0.972955 -0.82898,-1.456476 -1.25195,-1.392578 z m -8.7168,26.08789 v 2.984375 c 0.1512,0.250475 0.30002,0.483322 0.45117,0.748047 2.12845,3.72768 2.24149,5.024324 2.30079,26.15039 0.0578,20.57539 -0.0986,22.62576 -2.10547,27.57031 -0.21136,0.52076 -0.42972,0.99393 -0.64649,1.47071 v 4.17382 c 1.48187,-3.34303 4.10102,-8.76876 7.21094,-14.83203 6.83979,-13.33523 8.5,-17.42483 8.5,-20.93945 0,-5.23279 -0.82976,-7.754884 -2.25977,-6.871094 -0.63548,0.392754 -0.75055,0.163492 -0.29101,-0.580078 0.46898,-0.75883 -1.51086,-4.161887 -5.18164,-8.904297 -2.91735,-3.76901 -6.23054,-8.339604 -7.97852,-10.970703 z"
         id="path847-3" />
      <path
         inkscape:connector-curvature="0"
         style="fill:#000000;stroke:none;stroke-width:0.10069583;stroke-miterlimit:4;stroke-dasharray:none;stroke-opacity:1"
         d="M 0,-3e-6 V 155 H 155 V -3e-6 Z M 31.30469,7.93945 h 45 45 v 54 c 0,29.7 0.3687,54 0.82031,54 0.45161,0 3.78984,-2.925 7.41797,-6.5 3.62813,-3.575 7.08443,-6.5 7.67969,-6.5 1.92731,0 1.14786,5.93556 -1.45313,11.06836 -2.21537,4.37183 -8.05401,9.67451 -9.29101,8.4375 -0.23075,-0.23075 1.39966,-2.48582 3.62305,-5.01172 2.22338,-2.5259 4.51702,-5.95547 5.09765,-7.62109 1.00555,-2.88452 0.79166,-2.78746 -4.5,2.04883 -3.05557,2.79261 -5.93791,5.07812 -6.4043,5.07812 -0.46639,0 -1.52866,0.68102 -2.36132,1.51367 -1.35189,1.3519 -1.92226,1.30991 -5.32227,-0.39648 -3.73075,-1.87237 -15.49437,-3.97094 -14.02539,-2.50196 0.41027,0.41027 3.86578,1.53781 7.67773,2.50586 8.36431,2.12414 11.43548,4.00129 13.0918,8 1.81231,4.3753 -0.63234,8.87157 -7.24414,13.32422 -2.90353,1.95535 -4.791,3.55469 -4.19336,3.55469 0.59764,0 2.95381,-1.35241 5.23633,-3.00586 l 4.15039,-3.00586 v 4.84961 4.84961 l -15.75,0.65234 c -21.09558,0.87496 -44.74273,0.83344 -45.65625,-0.0801 -0.40695,-0.40673 -7.00826,-0.58695 -14.66797,-0.40039 l -13.92578,0.33987 V 77.53906 Z m 21.63086,4.988281 c -1.75581,-5.09e-4 -3.44475,0.363963 -4.94727,1.140625 -3.51141,1.81507 -9.59823,8.768682 -12.24023,13.982422 -3.45251,6.8132 -3.00972,7.502742 0.57031,0.888672 3.64068,-6.72612 10.76211,-13.505547 15.09961,-14.373047 9.14375,-1.82875 22.37025,12.938538 23.66602,26.423828 0.53442,5.56187 -2.16638,11.99862 -8.82618,21.03125 l -4.11523,5.580078 -0.71484,12.919921 c -0.71233,12.89185 -0.72371,12.94045 -5.9961,24.26367 -2.9058,6.24063 -5.52059,12.80898 -5.81054,14.59571 -1.10453,6.80639 4.22575,11.77517 14.54297,13.55664 4.79834,0.82852 16.01352,0.33885 22.14062,-0.9668 1.925,-0.4102 -1.9,-0.53075 -8.5,-0.26758 -25.02213,0.99772 -30.51431,-5.00154 -21.54883,-23.54101 5.9233,-12.24863 7.02093,-16.31547 7.89453,-29.27149 0.73868,-10.954976 1.03435,-12.200472 3.96485,-16.646482 5.6551,-8.579651 8.16938,-14.54399 8.17968,-19.40625 0.0112,-5.293812 -1.51264,-10.363935 -4.13671,-13.765626 -1.00448,-1.302149 -1.58121,-2.76465 -1.28125,-3.25 0.29997,-0.48536 0.10595,-0.882812 -0.43165,-0.882812 -0.53761,0 -1.91222,-1.512788 -3.05468,-3.361328 -3.31025,-5.356088 -9.18765,-8.648865 -14.45508,-8.650391 z m 9.67578,12.25 c -0.19555,0.02136 -0.30664,0.212578 -0.30664,0.603516 0,0.59821 -1.39655,2.678907 -3.10352,4.623047 -2.16146,2.46176 -3.95146,3.535156 -5.89648,3.535156 -1.94502,0 -3.73502,-1.073396 -5.89648,-3.535156 -1.70697,-1.94414 -3.10352,-4.047098 -3.10352,-4.673828 0,-0.62674 -1.11346,-0.09319 -2.47461,1.185546 -2.78512,2.61648 -6.01875,10.182609 -5.21289,12.199219 0.34481,0.86285 0.55787,0.702106 0.60938,-0.464843 0.103,-2.3351 3.51881,-9.000689 5.42187,-10.580079 1.22365,-1.01554 1.60107,-0.877322 2.125,0.773438 0.35065,1.1048 2.07587,3.209747 3.83398,4.679687 1.7581,1.46994 3.50312,3.403202 3.87696,4.294922 0.60967,1.45419 0.687,1.45692 0.75,0.03125 0.0387,-0.87422 1.16493,-2.088075 2.50195,-2.697265 1.33703,-0.60919 3.44609,-2.481057 4.6875,-4.160157 1.24141,-1.67909 2.551,-3.052734 2.91016,-3.052734 0.97327,0 5.95011,9.480756 6.10742,11.634766 0.10937,1.49752 0.21925,1.437865 0.55859,-0.302735 0.2324,-1.19205 -0.6942,-4.37 -2.05859,-7.0625 -2.03322,-4.012369 -4.48267,-7.123818 -5.33008,-7.03125 z M 32.77539,48.748044 c -0.0248,-0.0085 -0.0433,-0.0027 -0.0566,0.01563 -0.0639,0.08791 0.002,0.484138 0.18555,1.175781 0.85617,3.22484 6.40574,11.520706 10.70898,16.009766 5.48286,5.71963 5.94846,7.164189 4.60352,14.261719 -1.22993,6.49057 -2.32193,8.99906 -10.75586,24.72851 -2.80157,5.225 -5.08617,10.625 -5.07617,12 0.0116,1.67486 0.78837,0.50016 2.35156,-3.55859 1.28332,-3.3321 4.6415,-10.15325 7.46289,-15.15821 C 53.20178,78.70494 53.12123,75.3509 41.30082,60.785158 38.46883,57.295463 35.27068,52.86445 34.19531,50.93945 33.40646,49.527342 32.94872,48.807558 32.77539,48.748044 Z M 91.22071,115.0625 c -0.3474,-0.0143 -0.74259,0.0489 -1.10352,0.19336 -0.79773,0.31922 -0.56143,0.55745 0.60352,0.60547 1.05416,0.0434 1.64479,-0.19311 1.3125,-0.5254 -0.16615,-0.16612 -0.46511,-0.25913 -0.8125,-0.27343 z m 6.08398,0 c -0.63437,0 -1.26875,0.0617 -1.75,0.1875 -0.9625,0.25153 -0.175,0.45703 1.75,0.45703 1.925,0 2.7125,-0.2055 1.75,-0.45703 -0.48125,-0.12576 -1.11563,-0.1875 -1.75,-0.1875 z m -13.08398,1 c -0.3474,-0.0143 -0.74259,0.0489 -1.10352,0.19336 -0.79773,0.31922 -0.56143,0.55745 0.60352,0.60547 1.05416,0.0434 1.64479,-0.19311 1.3125,-0.5254 -0.16615,-0.16612 -0.46511,-0.25913 -0.8125,-0.27343 z m -12,2 c -0.3474,-0.0143 -0.74259,0.0489 -1.10352,0.19336 -0.79773,0.31922 -0.56143,0.55745 0.60352,0.60547 1.05416,0.0434 1.64479,-0.19311 1.3125,-0.5254 -0.16615,-0.16612 -0.46511,-0.25913 -0.8125,-0.27343 z m 24.07226,11.05664 c -0.76613,0 -2.27869,0.2728 -3.98828,0.82031 -2.00973,0.64363 -2.10779,0.80648 -0.5,0.83008 1.1,0.0162 2.9,-0.35739 4,-0.83008 1.27411,-0.54751 1.25441,-0.82031 0.48828,-0.82031 z m -63.77734,4.33008 c -0.66939,-0.12914 -0.29065,0.84562 1.56054,3.00781 3.28173,3.83306 6.24343,5.79567 11.47657,7.60351 2.88878,0.99796 6.15195,1.80392 7.25195,1.79102 1.1,-0.0129 -0.84001,-0.92424 -4.31055,-2.02344 -4.65768,-1.4752 -7.60369,-3.24518 -11.25,-6.75976 -2.34133,-2.25674 -4.05913,-3.49001 -4.72851,-3.61914 z m 77.28906,9.52148 c -0.55,0 -1.675,0.43559 -2.5,0.96875 -0.825,0.53316 -1.05,0.96875 -0.5,0.96875 0.55,0 1.675,-0.43559 2.5,-0.96875 0.825,-0.53316 1.05,-0.96875 0.5,-0.96875 z"
         id="path871" />
    </g>
  </g>
</svg>
