<?xml version="1.0" encoding="UTF-8" standalone="no"?>
<!-- Created with Inkscape (http://www.inkscape.org/) -->

<svg
   xmlns:dc="http://purl.org/dc/elements/1.1/"
   xmlns:cc="http://creativecommons.org/ns#"
   xmlns:rdf="http://www.w3.org/1999/02/22-rdf-syntax-ns#"
   xmlns:svg="http://www.w3.org/2000/svg"
   xmlns="http://www.w3.org/2000/svg"
   xmlns:sodipodi="http://sodipodi.sourceforge.net/DTD/sodipodi-0.dtd"
   xmlns:inkscape="http://www.inkscape.org/namespaces/inkscape"
   version="1.1"
   id="svg2"
   width="500"
   height="284"
   viewBox="0 0 500 284"
   sodipodi:docname="logo-horizontal.svg"
   inkscape:version="0.92.3 (2405546, 2018-03-11)">
  <metadata
     id="metadata8">
    <rdf:RDF>
      <cc:Work
         rdf:about="">
        <dc:format>image/svg+xml</dc:format>
        <dc:type
           rdf:resource="http://purl.org/dc/dcmitype/StillImage" />
        <dc:title></dc:title>
      </cc:Work>
    </rdf:RDF>
  </metadata>
  <defs
     id="defs6" />
  <sodipodi:namedview
     pagecolor="#ffffff"
     bordercolor="#666666"
     borderopacity="1"
     objecttolerance="10"
     gridtolerance="10"
     guidetolerance="10"
     inkscape:pageopacity="0"
     inkscape:pageshadow="2"
     inkscape:window-width="1366"
     inkscape:window-height="713"
     id="namedview4"
     showgrid="false"
     inkscape:zoom="0.70710678"
     inkscape:cx="-63.247086"
     inkscape:cy="187.59158"
     inkscape:window-x="0"
     inkscape:window-y="27"
     inkscape:window-maximized="1"
     inkscape:current-layer="svg2"
     inkscape:measure-start="0,0"
     inkscape:measure-end="0,0" />
  <rect
     style="opacity:1;fill:#000000;fill-opacity:1;fill-rule:evenodd;stroke:none;stroke-width:1.88976371;stroke-miterlimit:4;stroke-dasharray:none;stroke-opacity:1"
     id="rect879"
     width="500"
     height="284"
     x="0"
     y="1.4142156" />
  <path
     inkscape:connector-curvature="0"
     style="opacity:1;fill:#ffffff;fill-opacity:1;fill-rule:evenodd;stroke:none;stroke-width:1.88976383;stroke-miterlimit:4;stroke-dasharray:none;stroke-opacity:1"
     d="m 311.14214,84.750065 c -1.07893,0 -3.36431,6.05429 -19.80742,52.499995 -9.88226,27.91373 -11.45735,31.5 -13.83388,31.5 -0.7719,0 -1.67793,0.45 -2.01438,1 -0.38407,0.62784 1.80476,1 5.88075,1 3.66818,0 6.49164,-0.43496 6.49164,-1 0,-0.55 -0.66811,-1 -1.48469,-1 -0.81658,0 -1.46328,-0.3375 -1.43635,-0.75 0.0268,-0.4125 2.81742,-8.4 6.19972,-17.75 l 6.14947,-17 10.8993,-0.28125 10.8993,-0.2793 6.38145,17.70508 c 4.41607,12.25273 6.01008,17.83341 5.1732,18.11523 -0.66516,0.22401 -1.21017,0.82007 -1.21017,1.32422 0,0.50417 4.00865,0.91602 8.90812,0.91602 5.27888,0 8.90812,-0.40741 8.90812,-1 0,-0.55 -0.59977,-1 -1.33197,-1 -3.37225,0 -3.34803,0.0544 -22.97204,-54.24999 C 317.02938,98.137565 311.7194,84.750065 311.14214,84.750065 Z m 104.79221,0 c -0.62045,0 -4.60991,9.7875 -8.86559,21.750005 -20.92358,58.81509 -21.63849,60.66071 -23.9599,61.82616 -4.09766,2.0572 -3.58728,2.42468 3.31734,2.39258 6.02086,-0.028 6.62921,-0.19772 5.05141,-1.40625 -1.70011,-1.30222 -1.46688,-2.29544 4.45406,-18.9668 l 6.24806,-17.5918 10.8877,0.0117 10.8877,0.0117 6.19007,17.23633 c 3.40454,9.47973 6.18817,17.57383 6.18619,17.98633 -0.002,0.4125 -0.67198,0.75 -1.48856,0.75 -0.81657,0 -1.48468,0.45 -1.48468,1 0,0.59649 3.79419,1 9.40301,1 8.63623,0 12.12161,-1.04895 7.52397,-2.26367 -1.03333,-0.273 -2.56319,-1.5616 -3.40048,-2.86524 -1.27108,-1.97905 -13.39439,-34.71886 -26.70696,-72.121085 -1.71291,-4.8125 -3.62289,-8.75 -4.24334,-8.75 z m -147.18697,1.08203 c -5.57991,-0.0522 -8.49927,0.27801 -8.10779,0.91797 0.33645,0.55 1.26479,1 2.06272,1 2.85363,0 3.38113,5.31836 3.38113,34.074225 0,33.4444 1.11603,31.55382 -10.8877,18.4414 -4.08289,-4.45999 -13.88193,-15.0633 -21.77541,-23.5625 -7.89347,-8.49918 -17.4697,-18.892475 -21.28051,-23.095705 l -6.92853,-7.64258 -8.90812,-0.002 c -8.21454,-0.003 -8.62058,0.0873 -5.21767,1.15625 5.11834,1.60775 6.51154,3.33826 7.67475,9.53516 1.07574,5.730795 1.39333,65.033575 0.36924,68.896475 -0.39838,1.50264 -1.58873,2.49835 -3.43334,2.87109 -5.19266,1.04932 -1.83836,2.32813 6.10887,2.32813 4.58008,0 7.86033,-0.41729 7.86033,-1 0,-0.55 -0.44541,-1 -0.98979,-1 -0.54439,0 -1.88061,-0.9 -2.96938,-2 -1.89604,-1.91557 -1.97958,-3.33399 -1.97958,-33.58399 0,-17.37083 0.36806,-31.43333 0.81775,-31.25 0.44968,0.18334 7.65543,7.759 16.01257,16.83399 8.35714,9.075 18.59352,20.1 22.7478,24.5 10.86563,11.50834 19.15549,20.44499 22.94498,24.73437 l 3.29801,3.73243 0.52197,-41.23243 c 0.28732,-22.67845 0.62138,-41.346495 0.74234,-41.482415 0.12095,-0.13592 1.66795,-0.88626 3.4372,-1.66797 3.10457,-1.3717 2.91298,-1.42325 -5.50184,-1.50195 z m 95.63084,0.0234 c -9.57326,0.0871 -11.18874,0.30578 -8.93326,1.20508 1.51462,0.6039 2.9826,2.02274 3.26322,3.15234 0.2806,1.12959 0.37664,22.749435 0.21458,48.044925 -0.28129,43.90265 -0.38377,46.14549 -2.27343,49.38672 -3.1402,5.38621 -6.82381,7.61739 -12.44584,7.5332 -5.59365,-0.0838 -6.34831,1.05906 -1.65868,2.51367 5.13304,1.59213 14.2295,0.57302 17.96316,-2.01171 4.58724,-3.17565 7.33657,-7.65824 8.50022,-13.85743 0.57966,-3.08808 1.00332,-23.40681 1.00332,-48.12695 0,-23.52995 0.27079,-43.493305 0.60123,-44.363285 0.33043,-0.86999 1.41808,-1.58203 2.41648,-1.58203 0.9984,0 2.08969,-0.45 2.42614,-1 0.39597,-0.64729 -3.51133,-0.96343 -11.07714,-0.89453 z m -56.24218,17.119145 c 0.12676,-0.15192 2.03206,4.79808 4.23368,11 2.20162,6.20192 4.31676,12.06289 4.69957,13.02539 0.63431,1.59483 -0.15747,1.75 -8.91972,1.75 -8.76085,0 -9.5525,-0.15543 -8.92165,-1.75 0.38078,-0.9625 2.48794,-6.7 4.6841,-12.75 2.19617,-6.05 4.09725,-11.12347 4.22402,-11.27539 z m 105.06285,0.29883 c 0.0248,-0.006 0.043,0.007 0.0541,0.041 0.17937,0.54365 2.27046,6.4899 4.64545,13.21289 l 4.31681,12.22266 h -9.38175 c -8.53728,0 -9.31982,-0.15751 -8.69354,-1.75 0.37852,-0.9625 2.51118,-6.90875 4.73824,-13.21289 2.08786,-5.91013 3.94842,-10.42077 4.32067,-10.51367 z m 24.07203,79.40625 c -0.60384,-0.0366 -0.9434,0.3064 -0.9434,1.07031 0,0.55 0.44541,1 0.98979,1 1.38967,0 1.25657,11.7159 -0.14305,12.58984 -0.78228,0.48845 -0.97808,-0.11312 -0.63215,-1.9414 0.42289,-2.23503 0.15032,-2.64844 -1.74374,-2.64844 -1.75721,0 -2.13161,0.43421 -1.72633,2 0.43496,1.68046 0.0302,2 -2.53247,2 -3.2875,0 -5.09975,-2.16921 -5.09975,-6.10547 0,-4.59204 5.73517,-7.69982 8.69354,-4.71094 0.6442,0.65084 1.48252,0.86742 1.86359,0.48242 1.29112,-1.30444 -1.63133,-3.0664 -5.08621,-3.0664 -6.32592,0 -10.65694,6.92764 -7.17213,11.47265 2.16492,2.82355 5.06972,3.86559 10.85678,3.89648 l 5.69129,0.0312 v -5.4121 -5.41211 l 5.42453,5.66211 5.42259,5.6621 0.0213,-6.66797 c 0.011,-3.66752 0.29011,-7.38002 0.62056,-8.25 0.39424,-1.03799 0.0539,-1.58203 -0.98979,-1.58203 -1.25415,0 -1.59797,1.11047 -1.62775,5.25 l -0.0387,5.25 -4.84842,-5.25 c -3.06691,-3.32134 -5.67159,-5.23981 -7.00007,-5.32031 z m -24.39488,0.42773 c -0.75174,0.0367 -1.53065,0.23606 -2.24636,0.62305 -3.31557,1.79275 -2.59493,5.74241 1.49049,8.17773 1.92828,1.14945 3.33922,2.59534 3.13757,3.21485 -0.63055,1.93689 -4.7338,1.90868 -6.1978,-0.043 -1.27782,-1.70342 -1.37613,-1.6396 -1.40543,0.91992 -0.0283,2.47145 0.31197,2.75 3.36181,2.75 1.86647,0 4.0935,-0.70799 4.94896,-1.57228 2.69992,-2.72777 1.20893,-6.79752 -2.87078,-7.83202 -1.6215,-0.41118 -2.50155,-1.33069 -2.50155,-2.61523 0,-2.23681 2.84762,-2.70506 4.75178,-0.78125 0.9238,0.93333 1.18697,0.83817 1.18697,-0.43164 0,-1.34175 -1.31059,-2.24194 -2.91524,-2.39258 -0.2407,-0.0226 -0.48981,-0.0298 -0.74042,-0.0176 z m -32.47172,0.5625 v 7.54102 7.53906 h 4.65512 c 2.56022,0 5.77615,-0.51546 7.14698,-1.14649 1.46797,-0.67577 2.95674,-2.57036 3.6228,-4.60938 0.97634,-2.98885 0.86648,-3.82373 -0.81388,-6.10352 -1.69731,-2.30277 -2.75816,-2.6768 -8.27983,-2.92968 z m 21.52796,0.082 -4.70151,0.002 v 7.49805 7.5 l 4.70151,-0.002 c 3.19588,-5.7e-4 4.70151,-0.41569 4.70151,-1.29884 0,-0.89562 -1.07522,-1.17241 -3.46427,-0.89062 -3.17742,0.37477 -3.46427,0.19216 -3.46427,-2.20118 0,-2.23269 0.4287,-2.60937 2.96937,-2.60937 1.63316,0 2.96937,-0.45 2.96937,-1 0,-0.55 -1.33621,-1 -2.96937,-1 -2.54685,0 -2.96937,-0.37437 -2.96937,-2.63086 0,-2.4482 0.24051,-2.59104 3.46427,-2.0625 1.90534,0.31238 3.46427,0.14628 3.46427,-0.36914 0,-0.51542 -2.11568,-0.93655 -4.70151,-0.93554 z m 18.55858,0 c -1.18761,9.9e-4 -1.48468,1.50164 -1.48468,7.5 0,5.99897 0.29694,7.49813 1.48468,7.49805 1.18774,-9e-5 1.48469,-1.50005 1.48469,-7.5 0,-6.00059 -0.29682,-7.49906 -1.48469,-7.49805 z M 385.9139,184.75 c 2.32869,0 6.01574,1.76767 7.0948,3.40039 1.23378,1.86684 0.83458,5.3775 -0.79841,7.02733 -0.85545,0.86429 -3.08248,1.57228 -4.94895,1.57228 h -3.39275 v -6 c 0,-5.39698 0.20615,-6 2.04531,-6 z"
     id="rect858" />
  <g
     id="g1641"
     transform="translate(24.798942,56.659514)">
    <path
       inkscape:connector-curvature="0"
       id="rect1593"
       d="m 22.896073,15.494201 v 69.46094 69.460939 l 13.76172,-0.33985 c 7.56929,-0.18618 14.09199,-0.005 14.49414,0.40039 0.90274,0.91168 24.27064,0.95328 45.11718,0.0801 l 15.564457,-0.65234 v -4.83985 -4.83984 l -4.10157,3 c -2.25556,1.65016 -4.58323,3 -5.17382,3 -0.59058,0 1.2733,-1.59542 4.14258,-3.54688 6.53374,-4.44378 8.95107,-8.93223 7.16015,-13.29882 -1.63676,-3.99075 -4.67193,-5.86447 -12.9375,-7.98438 -3.766937,-0.96612 -7.182457,-2.09055 -7.587887,-2.5 -1.45164,-1.46606 10.172667,0.62941 13.859377,2.49805 3.35987,1.70299 3.92383,1.74374 5.25976,0.39453 0.82283,-0.83099 1.87311,-1.50977 2.33399,-1.50977 0.46089,0 3.30862,-2.28131 6.32812,-5.06836 5.22919,-4.82666 5.44095,-4.9237 4.44727,-2.04492 -0.57377,1.6623 -2.83998,5.0846 -5.03711,7.60547 -2.19714,2.52087 -3.8081,4.77166 -3.58008,5.00195 1.2224,1.23455 6.99242,-4.0568 9.18164,-8.41992 2.57028,-5.12258 3.3401,-11.04687 1.43555,-11.04687 -0.58824,0 -4.00455,2.91845 -7.58985,6.48633 -3.5853,3.56789 -6.8838,6.48828 -7.33008,6.48828 -0.44628,0 -0.81054,-24.251709 -0.81054,-53.892579 V 15.494221 H 67.364823 Z m 21.375,4.97852 c 5.20525,0.001 11.01398,3.28739 14.28515,8.63281 1.12898,1.84486 2.48632,3.35351 3.01758,3.35351 0.53126,0 0.72416,0.39843 0.42774,0.88282 -0.29642,0.48439 0.273,1.94263 1.26562,3.24218 2.59309,3.39492 4.09899,8.45502 4.08789,13.73829 -0.0102,4.85258 -2.49564,10.80462 -8.08398,19.36718 -2.89591,4.43716 -3.18801,5.68012 -3.91797,16.61328 -0.86329,12.93023 -1.9474,16.990599 -7.80078,29.214849 -8.85964,18.50256 -3.43181,24.48987 21.29492,23.49414 6.52209,-0.26265 10.30071,-0.14377 8.39844,0.26562 -6.05477,1.30305 -17.13721,1.79172 -21.87891,0.96485 -10.19542,-1.77792 -15.46258,-6.73646 -14.37109,-13.5293 0.28652,-1.78317 2.87069,-8.3382 5.74218,-14.56641 5.21015,-11.30068 5.22187,-11.34866 5.92579,-24.214839 l 0.70703,-12.89453 4.0664,-5.56836 c 6.58118,-9.01465 9.24882,-15.43943 8.72071,-20.99023 -1.28047,-13.45844 -14.35092,-28.19621 -23.38672,-26.3711 -4.2863,0.86578 -11.32222,7.63103 -14.91992,14.34375 -3.53776,6.60091 -3.97622,5.91292 -0.56446,-0.88672 2.61081,-5.20336 8.62576,-12.14167 12.09571,-13.95312 1.48479,-0.77512 3.15359,-1.13917 4.88867,-1.13867 z m 9.5625,12.22461 c 0.83741,-0.0924 3.2564,3.01319 5.26562,7.01757 1.34828,2.68714 2.26482,5.85915 2.03516,7.04883 -0.33534,1.73713 -0.44466,1.79728 -0.55274,0.30274 -0.15545,-2.14972 -5.07337,-11.61328 -6.03515,-11.61328 -0.35492,0 -1.64825,1.37113 -2.875,3.04687 -1.22676,1.67576 -3.31157,3.54436 -4.63281,4.15234 -1.32124,0.60797 -2.43446,1.81893 -2.47266,2.69141 -0.0623,1.42283 -0.13776,1.42001 -0.74023,-0.0312 -0.36943,-0.88994 -2.09469,-2.81814 -3.83204,-4.28516 -1.73735,-1.46701 -3.4406,-3.56927 -3.78711,-4.67187 -0.51775,-1.64747 -0.89235,-1.785 -2.10156,-0.77149 -1.88059,1.57625 -5.25564,8.22815 -5.35742,10.5586 -0.0509,1.16462 -0.26082,1.32597 -0.60156,0.46484 -0.79634,-2.0126 2.39814,-9.5645 5.15039,-12.17578 1.34508,-1.27618 2.44531,-1.80713 2.44531,-1.18164 0,0.62548 1.38154,2.72379 3.06836,4.66406 2.13594,2.45686 3.90411,3.52735 5.82617,3.52735 1.92206,0 3.69023,-1.07049 5.82617,-3.52735 1.68682,-1.94027 3.06836,-4.01626 3.06836,-4.61328 0,-0.39016 0.1095,-0.58221 0.30274,-0.60351 z m -29.48438,23.52343 c 0.17128,0.0594 0.62281,0.77821 1.40235,2.1875 1.06267,1.92117 4.22488,6.34342 7.02343,9.82617 11.68087,14.53675 11.75935,17.88443 0.88672,37.363289 -2.78808,4.99499 -6.10683,11.80148 -7.375,15.12695 -1.54474,4.05067 -2.31272,5.22426 -2.32422,3.55273 -0.01,-1.37226 2.24908,-6.76196 5.01758,-11.97656 8.33436,-15.698129 9.4135,-18.202049 10.62891,-24.679689 1.32906,-7.0834 0.8693,-8.52418 -4.54883,-14.23242 -4.25244,-4.48012 -9.73792,-12.76009 -10.58398,-15.97851 -0.18136,-0.69027 -0.2468,-1.08613 -0.1836,-1.17383 0.0131,-0.0186 0.0321,-0.0236 0.0566,-0.0156 z m 57.75586,66.183599 c 0.34329,0.0143 0.63855,0.10569 0.80274,0.27148 0.32837,0.33163 -0.25516,0.56869 -1.29688,0.52539 -1.15119,-0.0479 -1.38598,-0.28688 -0.59765,-0.60547 0.35666,-0.14417 0.74849,-0.2057 1.09179,-0.1914 z m 6.01172,0 c 0.62688,0 1.25295,0.06 1.72852,0.18554 0.95114,0.25102 0.17375,0.45704 -1.72852,0.45703 -1.90228,0 -2.67968,-0.20601 -1.72851,-0.45703 0.47557,-0.12553 1.10163,-0.18554 1.72851,-0.18554 z m -12.92969,0.99804 c 0.34329,0.0143 0.63855,0.1057 0.80274,0.27149 0.32836,0.33163 -0.25516,0.56869 -1.29688,0.52539 -1.1512,-0.0479 -1.38402,-0.28688 -0.5957,-0.60547 0.35667,-0.14417 0.74654,-0.20571 1.08984,-0.19141 z m -11.85742,1.99414 c 0.34329,0.0143 0.63855,0.10765 0.80274,0.27344 0.32837,0.33163 -0.25517,0.56869 -1.29688,0.52539 -1.1512,-0.0479 -1.38597,-0.28688 -0.59766,-0.60547 0.35667,-0.14417 0.7485,-0.20766 1.0918,-0.19336 z m 23.78711,11.03516 c 0.75709,0 0.77665,0.27194 -0.48242,0.81836 -1.08702,0.47175 -2.86612,0.84628 -3.95313,0.83008 -1.58881,-0.0236 -1.49187,-0.18773 0.49414,-0.83008 1.6894,-0.54642 3.18433,-0.81836 3.94141,-0.81836 z m -63.02344,4.32227 c 0.66148,0.12887 2.35819,1.35907 4.67188,3.61132 3.60327,3.50758 6.5145,5.27384 11.11719,6.7461 3.42957,1.09701 5.34678,2.00663 4.25976,2.01953 -1.08701,0.0129 -4.31134,-0.79114 -7.16601,-1.78711 -5.17136,-1.80425 -8.09881,-3.76246 -11.3418,-7.58789 -1.82933,-2.15788 -2.2025,-3.13083 -1.54102,-3.00195 z m 76.374997,9.50195 c 0.54351,0 0.32112,0.4347 -0.494137,0.9668 -0.81527,0.5321 -1.92524,0.96679 -2.46875,0.96679 -0.54351,0 -0.32112,-0.43469 0.49414,-0.96679 0.81526,-0.5321 1.92525,-0.9668 2.468747,-0.9668 z"
       style="opacity:1;fill:#ffffff;fill-opacity:1;fill-rule:evenodd;stroke:none;stroke-width:0.1;stroke-miterlimit:4;stroke-dasharray:none;stroke-opacity:1" />
    <path
       id="path1634"
       d="m 28.675823,20.218011 v 6.03289 c 0,4.45668 -0.64544,7.31934 -2.47049,10.95666 -0.074,0.14745 -0.13612,0.29098 -0.20845,0.43858 v 2.13441 c 5.5682,-12.0886 14.63375,-19.4557 21.63221,-17.50414 7.14503,1.99242 16.91121,15.48691 18.22756,25.18608 0.7893,5.81582 -0.7518,10.30978 -6.00444,17.51584 -6.44694,8.84451 -6.67696,9.56201 -7.4327,23.27778 -0.70337,12.765279 -0.70517,12.778739 -5.80178,23.365499 -2.80455,5.82565 -5.36678,12.28158 -5.6937,14.34638 -0.41368,2.61268 0.0122,4.9437 1.17541,6.94903 h 2.36433 l -0.22002,-0.20662 2.19641,-1.67244 c 2.19177,-1.66967 15.54489,-5.10535 27.69262,-7.12641 10.27979,-1.7103 24.29898,-0.19322 32.122107,3.08564 V 21.913851 l -0.006,-1.17344 -38.786637,-0.2612 z m 5.93496,12.11646 c -0.41798,0.0638 -0.96836,0.67386 -2.03236,1.88881 -2.8347,3.23686 -4.8985,8.20192 -4.85799,11.68567 0.025,2.15443 0.44034,1.58103 1.8548,-2.55545 1.00263,-2.93206 2.4916,-6.00548 3.30813,-6.83012 1.32068,-1.33379 1.98639,-0.99181 6.0334,3.09539 2.50214,2.52698 4.82709,5.71268 5.16679,7.07962 0.33971,1.36695 0.84322,2.48528 1.11944,2.48528 0.27624,0 0.26628,-0.91523 -0.0231,-2.03305 -0.38626,-1.49175 0.7502,-3.3209 4.27317,-6.87886 4.65637,-4.70261 4.84997,-4.79202 6.49082,-2.96089 0.93028,1.03815 2.49952,4.24728 3.4857,7.13031 1.50447,4.39819 1.79379,4.7596 1.80268,2.24747 0.0131,-3.72583 -2.9355,-10.36382 -5.71106,-12.85717 -2.06225,-1.85255 -2.10353,-1.84366 -3.03021,0.61791 -1.15746,3.07449 -5.62861,6.75021 -8.21248,6.75021 -1.99202,0 -6.5276,-4.0209 -8.43054,-7.47533 -0.5349,-0.97101 -0.81919,-1.45357 -1.23717,-1.3898 z m -8.6139,26.03595 v 2.97843 c 0.14942,0.24998 0.29648,0.48236 0.44585,0.74656 2.10332,3.72026 2.21503,5.01432 2.27363,26.09833 0.0571,20.534429 -0.0974,22.580709 -2.08062,27.515419 -0.20886,0.51972 -0.42465,0.99195 -0.63886,1.46778 v 4.16551 c 1.46438,-3.33637 4.05261,-8.7513 7.12582,-14.8025 6.75904,-13.308679 8.39965,-17.390139 8.39965,-20.897759 0,-5.22237 -0.81996,-7.73945 -2.23309,-6.85742 -0.62798,0.39198 -0.74169,0.16317 -0.28758,-0.57892 0.46345,-0.75732 -1.49302,-4.1536 -5.12047,-8.88657 -2.88291,-3.7615 -6.15698,-8.323 -7.88433,-10.94886 z"
       style="fill:#da252e;fill-opacity:1;stroke:none;stroke-width:0.1;stroke-miterlimit:4;stroke-dasharray:none;stroke-opacity:1"
       inkscape:connector-curvature="0" />
    <path
       inkscape:connector-curvature="0"
       id="path1614"
       d="m 44.273033,20.470771 c -1.73508,-5e-4 -3.4039,0.36355 -4.88867,1.13867 -3.46997,1.81145 -9.4849,8.75172 -12.09571,13.95508 -3.41175,6.79964 -2.97527,7.48763 0.5625,0.88671 3.5977,-6.71271 10.63559,-13.47797 14.92188,-14.34374 9.03581,-1.82511 22.10625,12.91265 23.38672,26.37109 0.52811,5.5508 -2.14148,11.97363 -8.72266,20.98828 l -4.06641,5.57031 -0.70507,12.89258 c -0.70392,12.866179 -0.71564,12.916119 -5.92579,24.216799 -2.8715,6.22821 -5.45566,12.78323 -5.74218,14.5664 -1.09149,6.79284 4.17567,11.75138 14.37109,13.5293 4.7417,0.82687 15.82415,0.33821 21.87891,-0.96484 1.90228,-0.40939 -1.87636,-0.53023 -8.39844,-0.26758 -24.72674,0.99573 -30.15456,-4.99158 -21.29492,-23.49414 5.85337,-12.22425 6.9375,-16.282659 7.80078,-29.212889 0.72996,-10.93316 1.02206,-12.17612 3.91797,-16.61328 5.58834,-8.56257 8.0738,-14.51461 8.08398,-19.36719 0.0111,-5.28327 -1.4948,-10.34336 -4.08789,-13.73828 -0.99262,-1.29956 -1.56204,-2.75976 -1.26562,-3.24414 0.29643,-0.48439 0.10351,-0.88086 -0.42774,-0.88086 -0.53126,0 -1.88861,-1.51061 -3.01758,-3.35547 -3.27117,-5.34542 -9.07991,-8.63128 -14.28515,-8.63281 z m 9.5625,12.22656 c -0.19324,0.0213 -0.30469,0.2114 -0.30469,0.60156 0,0.59702 -1.37959,2.67497 -3.06641,4.61524 -2.13594,2.45686 -3.90411,3.52734 -5.82617,3.52734 -1.92206,0 -3.69218,-1.07048 -5.82812,-3.52734 -1.68682,-1.94027 -3.06641,-4.04054 -3.06641,-4.66602 0,-0.62549 -1.10023,-0.0926 -2.44531,1.18359 -2.75224,2.61128 -5.94674,10.16317 -5.15039,12.17579 0.34074,0.86113 0.55065,0.69977 0.60156,-0.46485 0.10178,-2.33045 3.47683,-8.98234 5.35742,-10.55859 1.2092,-1.01351 1.58187,-0.87599 2.09961,0.77148 0.34651,1.1026 2.05171,3.20291 3.78906,4.66992 1.73735,1.46702 3.46261,3.39717 3.83203,4.28711 0.60248,1.4513 0.67798,1.45407 0.74024,0.0312 0.0382,-0.87248 1.15142,-2.08343 2.47266,-2.6914 1.32124,-0.60798 3.40605,-2.47659 4.63281,-4.15235 1.22675,-1.67574 2.52008,-3.04687 2.875,-3.04687 0.96178,0 5.8797,9.46161 6.03515,11.61133 0.10808,1.49454 0.2174,1.43439 0.55274,-0.30274 0.22965,-1.18968 -0.68688,-4.35973 -2.03516,-7.04687 -2.00922,-4.00438 -4.42821,-7.10997 -5.26562,-7.01758 z m -29.48438,23.52344 c -0.0245,-0.009 -0.0435,-0.003 -0.0566,0.0156 -0.0631,0.0877 0.002,0.48356 0.1836,1.17383 0.84606,3.21842 6.32959,11.49644 10.58203,15.97656 5.41813,5.70824 5.87984,7.15098 4.55078,14.23438 -1.21541,6.47764 -2.29454,8.98155 -10.62891,24.679679 -2.7685,5.2146 -5.02746,10.60235 -5.01758,11.97461 0.0115,1.67153 0.77948,0.49989 2.32422,-3.55078 1.26817,-3.32547 4.58692,-10.13391 7.375,-15.1289 10.87263,-19.478859 10.7922,-22.824589 -0.88867,-37.361329 -2.79856,-3.48275 -5.9588,-7.905 -7.02148,-9.82617 -0.77954,-1.40929 -1.23106,-2.1281 -1.40235,-2.1875 z M 125.85896,115.2403 c -0.44477,0.0336 -1.79881,1.2518 -4.74023,3.96679 -3.0195,2.78705 -5.86723,5.06836 -6.32812,5.06836 -0.46089,0 -1.51116,0.68073 -2.33399,1.51172 -1.33593,1.34921 -1.8999,1.30651 -5.25976,-0.39648 -3.68671,-1.86864 -15.311017,-3.96216 -13.859377,-2.4961 0.40543,0.40945 3.819,1.53388 7.585937,2.5 8.26557,2.11991 11.30074,3.99363 12.9375,7.98438 1.79092,4.36659 -0.62446,8.85309 -7.15821,13.29687 -2.86925,1.95146 -4.73511,3.54883 -4.14453,3.54883 0.59059,0 2.9202,-1.34984 5.17578,-3 l 4.10157,-3 c 0,0 2.86158,-3.9604 3.4082,-6.4707 0.54634,-2.50898 0.34281,-5.74032 1.70117,-8.15039 0.16702,-0.60253 1.6464,-2.61091 3.58399,-4.83399 2.19713,-2.52087 4.46334,-5.94316 5.03711,-7.60546 0.43473,-1.25947 0.6389,-1.94999 0.29296,-1.92383 z m -43.751947,7.16211 c -0.3433,-0.0143 -0.73513,0.0492 -1.0918,0.19336 -0.78831,0.31859 -0.55353,0.55558 0.59766,0.60351 1.04172,0.0433 1.62525,-0.19181 1.29688,-0.52344 -0.16419,-0.16579 -0.45945,-0.25916 -0.80274,-0.27343 z m 6.01172,0 c -0.62688,0 -1.2549,0.062 -1.73047,0.1875 -0.95114,0.25102 -0.17181,0.45703 1.73047,0.45703 1.90227,0 2.67966,-0.20601 1.72852,-0.45703 -0.47557,-0.12551 -1.10164,-0.1875 -1.72852,-0.1875 z m -12.92969,0.99804 c -0.3433,-0.0143 -0.73317,0.0492 -1.08984,0.19336 -0.78831,0.31859 -0.5555,0.55559 0.5957,0.60352 1.04172,0.0433 1.62524,-0.19181 1.29688,-0.52344 -0.16419,-0.16579 -0.45945,-0.25917 -0.80274,-0.27344 z m -11.85937,1.9961 c -0.3433,-0.0143 -0.73318,0.0492 -1.08985,0.19336 -0.78831,0.31859 -0.55548,0.55558 0.59571,0.60351 1.04172,0.0433 1.6272,-0.19181 1.29883,-0.52343 -0.16419,-0.1658 -0.4614,-0.25917 -0.80469,-0.27344 z m 23.78906,11.03515 c -0.75708,0 -2.252,0.27194 -3.94141,0.81836 -1.986,0.64235 -2.08295,0.80457 -0.49414,0.82813 1.08701,0.0162 2.86611,-0.35638 3.95313,-0.82813 1.25906,-0.54642 1.23951,-0.81836 0.48242,-0.81836 z m -63.02539,4.32032 c -0.66149,-0.12888 -0.28637,0.84407 1.54297,3.00195 3.24299,3.82543 6.17044,5.78559 11.3418,7.58984 2.85468,0.99597 6.079,1.79998 7.16601,1.78711 1.08702,-0.0129 -0.8302,-0.92252 -4.25976,-2.01953 -4.60269,-1.47226 -7.51393,-3.23851 -11.11719,-6.74609 -2.31369,-2.25225 -4.01235,-3.48441 -4.67383,-3.61328 z m 76.376947,9.5039 c -0.543497,0 -1.655437,0.4347 -2.470697,0.9668 -0.81526,0.5321 -1.03765,0.9668 -0.49414,0.9668 0.54351,0 1.65543,-0.4347 2.4707,-0.9668 0.815257,-0.5321 1.037647,-0.9668 0.494137,-0.9668 z"
       style="fill:#000000;stroke:none;stroke-width:0.1;stroke-miterlimit:4;stroke-dasharray:none;stroke-opacity:1" />
  </g>
</svg>
