<?xml version="1.0" encoding="UTF-8" standalone="no"?>
<!-- Created with Inkscape (http://www.inkscape.org/) -->

<svg
   xmlns:dc="http://purl.org/dc/elements/1.1/"
   xmlns:cc="http://creativecommons.org/ns#"
   xmlns:rdf="http://www.w3.org/1999/02/22-rdf-syntax-ns#"
   xmlns:svg="http://www.w3.org/2000/svg"
   xmlns="http://www.w3.org/2000/svg"
   xmlns:sodipodi="http://sodipodi.sourceforge.net/DTD/sodipodi-0.dtd"
   xmlns:inkscape="http://www.inkscape.org/namespaces/inkscape"
   version="1.1"
   id="svg2"
   width="374"
   height="374"
   viewBox="0 0 374 374"
   sodipodi:docname="logo-dark-small.svg"
   inkscape:version="0.92.3 (2405546, 2018-03-11)">
  <metadata
     id="metadata8">
    <rdf:RDF>
      <cc:Work
         rdf:about="">
        <dc:format>image/svg+xml</dc:format>
        <dc:type
           rdf:resource="http://purl.org/dc/dcmitype/StillImage" />
        <dc:title />
      </cc:Work>
    </rdf:RDF>
  </metadata>
  <defs
     id="defs6" />
  <sodipodi:namedview
     pagecolor="#ffffff"
     bordercolor="#666666"
     borderopacity="1"
     objecttolerance="10"
     gridtolerance="10"
     guidetolerance="10"
     inkscape:pageopacity="0"
     inkscape:pageshadow="2"
     inkscape:window-width="1366"
     inkscape:window-height="713"
     id="namedview4"
     showgrid="false"
     inkscape:zoom="0.63101604"
     inkscape:cx="-195.93269"
     inkscape:cy="117.63206"
     inkscape:window-x="0"
     inkscape:window-y="27"
     inkscape:window-maximized="1"
     inkscape:current-layer="svg2" />
  <rect
     style="opacity:1;fill:#ffffff;fill-opacity:1;stroke:#335ab8;stroke-width:0;stroke-miterlimit:4;stroke-dasharray:none;stroke-opacity:1"
     id="rect3147"
     width="374"
     height="374"
     x="0"
     y="0" />
  <path
     style="fill:#da252e;fill-opacity:1"
     d="M 139 40.976562 L 139 47.021484 C 139 51.487054 138.34685 54.35542 136.5 58 C 136.42513 58.147746 136.36225 58.29156 136.28906 58.439453 L 136.28906 60.578125 C 141.92378 48.46541 151.09763 41.083606 158.17969 43.039062 C 165.41008 45.035463 175.29293 58.556871 176.625 68.275391 C 177.42373 74.102811 175.86422 78.605732 170.54883 85.826172 C 164.02488 94.688322 163.79211 95.407254 163.02734 109.15039 C 162.31557 121.94113 162.31375 121.95462 157.15625 132.5625 C 154.3182 138.39977 151.72536 144.86858 151.39453 146.9375 C 150.97591 149.55539 151.40685 151.89106 152.58398 153.90039 L 154.97656 153.90039 L 154.75391 153.69336 L 156.97656 152.01758 C 159.19451 150.34458 172.70715 146.90205 185 144.87695 C 195.4026 143.16324 209.58927 144.68335 217.50586 147.96875 L 217.50586 42.675781 L 217.5 41.5 L 178.25 41.238281 L 139 40.976562 z M 145.00586 53.117188 C 144.58289 53.181082 144.02593 53.792391 142.94922 55.009766 C 140.08066 58.253086 137.9922 63.22805 138.0332 66.71875 C 138.05853 68.87748 138.4788 68.302933 139.91016 64.158203 C 140.92476 61.220293 142.43152 58.140743 143.25781 57.314453 C 144.59426 55.978003 145.26793 56.320666 149.36328 60.416016 C 151.89531 62.948046 154.24804 66.140096 154.5918 67.509766 C 154.93556 68.879436 155.44509 70 155.72461 70 C 156.00415 70 155.99407 69.082941 155.70117 67.962891 C 155.31029 66.468171 156.46033 64.635373 160.02539 61.070312 C 164.73738 56.358322 164.9333 56.268736 166.59375 58.103516 C 167.53514 59.143736 169.12313 62.359267 170.12109 65.248047 C 171.64353 69.655017 171.93631 70.01715 171.94531 67.5 C 171.95861 63.76674 168.97474 57.115507 166.16602 54.617188 C 164.07913 52.760936 164.03736 52.769848 163.09961 55.236328 C 161.92836 58.316948 157.4038 62 154.78906 62 C 152.77324 62 148.18348 57.971086 146.25781 54.509766 C 145.71652 53.536811 145.42883 53.05329 145.00586 53.117188 z M 136.28906 79.205078 L 136.28906 82.189453 C 136.44026 82.439928 136.58908 82.672775 136.74023 82.9375 C 138.86868 86.66518 138.98172 87.961824 139.04102 109.08789 C 139.0988 129.66328 138.94239 131.71365 136.93555 136.6582 C 136.72419 137.17896 136.50583 137.65213 136.28906 138.12891 L 136.28906 142.30273 C 137.77093 138.9597 140.39008 133.53397 143.5 127.4707 C 150.33979 114.13547 152 110.04587 152 106.53125 C 152 101.29846 151.17024 98.776366 149.74023 99.660156 C 149.10475 100.05291 148.98968 99.823648 149.44922 99.080078 C 149.9182 98.321248 147.93836 94.918191 144.26758 90.175781 C 141.35023 86.406771 138.03704 81.836177 136.28906 79.205078 z "
     id="path847" />
  <path
     style="fill:#000000"
     d="M 0,187 V 0 H 187 374 V 187 374 H 187 0 Z m 219.39749,113.92981 c 4.63455,-3.17565 7.41332,-7.65923 8.58897,-13.85842 C 228.5721,283.98331 229,263.66544 229,238.9453 c 0,-23.52995 0.27314,-43.49353 0.60699,-44.36351 0.33384,-0.86999 1.43228,-1.58179 2.44098,-1.58179 1.0087,0 2.11211,-0.45 2.45203,-1 0.40005,-0.64729 -3.54713,-0.96248 -11.19098,-0.89362 -9.672,0.0871 -11.30553,0.30508 -9.02678,1.20438 1.53024,0.6039 3.01421,2.02221 3.29772,3.15181 0.28351,1.12959 0.3815,22.75012 0.21776,48.04561 -0.2842,43.90265 -0.38857,46.14606 -2.29772,49.38729 -3.17259,5.38621 -6.89517,7.61573 -12.57519,7.53149 -5.65134,-0.0838 -6.41281,1.05903 -1.67481,2.51364 5.18598,1.59214 14.37532,0.57394 18.14749,-2.01079 z m 32.02653,1.92286 c 1.48311,-0.67576 2.98775,-2.57031 3.66068,-4.60933 0.98641,-2.98885 0.87382,-3.82287 -0.82387,-6.10266 -1.71482,-2.30278 -2.78502,-2.67779 -8.36364,-2.93067 L 239.5,288.92002 V 296.46001 304 h 4.70295 c 2.58662,0 5.8361,-0.5163 7.22107,-1.14733 z M 243,296 c 0,-5.39698 0.20761,-6 2.06574,-6 2.3527,0 6.07876,1.76699 7.16895,3.3997 1.24651,1.86684 0.84371,5.37904 -0.80612,7.02887 -0.86428,0.86429 -3.11428,1.57143 -5,1.57143 H 243 Z m 23,6.7008 c 0,-0.89596 -1.08631,-1.17238 -3.5,-0.89059 -3.21019,0.37477 -3.5,0.19254 -3.5,-2.2008 0,-2.23268 0.43312,-2.60941 3,-2.60941 1.65,0 3,-0.45 3,-1 0,-0.55 -1.35,-1 -3,-1 -2.57312,0 -3,-0.37435 -3,-2.63084 0,-2.4482 0.24299,-2.59141 3.5,-2.06287 1.925,0.31238 3.5,0.14626 3.5,-0.36916 0,-0.51542 -2.1375,-0.93609 -4.75,-0.93482 l -4.75,0.002 v 7.49851 7.4985 l 4.75,-8.1e-4 c 3.22885,-5.6e-4 4.75,-0.41688 4.75,-1.30002 z m 9.42857,-0.27223 c 2.72777,-2.72777 1.2196,-6.79809 -2.90219,-7.83259 C 270.88816,294.18481 270,293.26549 270,291.98095 c 0,-2.23681 2.8762,-2.70475 4.8,-0.78095 0.93333,0.93333 1.2,0.8372 1.2,-0.43261 0,-2.14679 -3.39124,-3.16356 -5.96223,-1.78761 -3.34977,1.79275 -2.62321,5.74225 1.50435,8.17757 1.94817,1.14945 3.37542,2.59678 3.17168,3.21628 -0.63704,1.93693 -4.78402,1.90816 -6.26312,-0.0435 -1.291,-1.70341 -1.38928,-1.6397 -1.41888,0.91982 -0.0286,2.47146 0.31547,2.75 3.39677,2.75 1.88572,0 4.13572,-0.70714 5,-1.57143 z M 281.5,296.5 c 0,-6.00058 -0.29988,-7.49974 -1.5,-7.4987 -1.19986,10e-4 -1.5,1.50174 -1.5,7.5001 0,5.99897 0.30001,7.49878 1.5,7.4987 1.19999,-8e-5 1.5,-1.50014 1.5,-7.5001 z m 18.5,2.08794 v -5.41206 l 5.47985,5.66206 5.47984,5.66206 0.0202,-6.66821 c 0.0111,-3.66752 0.29329,-7.38002 0.62714,-8.25 0.39831,-1.03799 0.0545,-1.58179 -1,-1.58179 -1.26708,0 -1.61505,1.11047 -1.64511,5.25 l -0.0381,5.25 -4.89775,-5.25 C 299.51912,288.41896 296,286.55549 296,289 c 0,0.55 0.45,1 1,1 1.404,0 1.26907,11.71567 -0.14499,12.58961 -0.79035,0.48846 -0.98817,-0.11271 -0.63867,-1.94099 0.42725,-2.23503 0.1522,-2.64862 -1.76139,-2.64862 -1.77538,0 -2.15416,0.43421 -1.7447,2 0.43945,1.68046 0.0307,2 -2.55843,2 C 286.83041,302 285,299.83074 285,295.89448 c 0,-4.59204 5.79445,-7.70003 8.78333,-4.71115 0.65084,0.65084 1.49834,0.86834 1.88334,0.48334 1.30444,-1.30444 -1.64882,-3.06667 -5.13933,-3.06667 -6.39117,0 -10.7663,6.92758 -7.24554,11.47259 2.18725,2.82355 5.12146,3.86608 10.9682,3.897 l 5.75,0.0304 z M 128.77781,194.25287 c 0.1222,-0.13592 1.68469,-0.88672 3.47219,-1.66843 3.13659,-1.3717 2.9426,-1.42414 -5.55902,-1.50287 -5.63746,-0.0522 -8.5865,0.27847 -8.19098,0.91843 0.33992,0.55 1.27761,1 2.08377,1 2.88307,0 3.41623,5.31771 3.41623,34.07357 0,33.44441 1.12754,31.55407 -11,18.44165 -4.125,-4.45999 -14.02491,-15.06296 -21.9998,-23.56215 -7.97489,-8.49919 -17.64989,-18.89208 -21.5,-23.09531 l -7.0002,-7.64224 -9,-0.003 c -8.29926,-0.003 -8.70971,0.0873 -5.2717,1.15626 5.17114,1.60775 6.57828,3.33823 7.75349,9.53513 1.08683,5.73079 1.40925,65.03409 0.37459,68.89699 -0.40248,1.50264 -1.60647,2.49903 -3.47011,2.87176 C 47.64005,274.72199 51.02982,276 59.05902,276 63.68634,276 67,275.58271 67,275 c 0,-0.55 -0.45,-1 -1,-1 -0.55,0 -1.9,-0.9 -3,-2 -1.91557,-1.91557 -2,-3.33333 -2,-33.58333 0,-17.37084 0.37171,-31.43334 0.82603,-31.25 C 62.28035,207.35 69.56026,214.925 78.0036,224 c 8.44334,9.075 18.78554,20.1 22.98266,24.5 10.9777,11.50834 19.35272,20.44417 23.18129,24.73355 l 3.33245,3.73356 0.52781,-41.23356 c 0.29029,-22.67845 0.62779,-41.34476 0.75,-41.48068 z M 146,275 c 0,-0.55 -0.675,-1 -1.5,-1 -0.825,0 -1.47778,-0.3375 -1.45062,-0.75 0.0271,-0.4125 2.84526,-8.4 6.26245,-17.75 l 6.21308,-17 11.0118,-0.28064 11.0118,-0.28064 6.4476,17.70669 c 4.46162,12.25272 6.07125,17.83214 5.22574,18.11397 -0.67202,0.22401 -1.22185,0.81979 -1.22185,1.32395 0,0.50417 4.05,0.91667 9,0.91667 5.33333,0 9,-0.40741 9,-1 0,-0.55 -0.60526,-1 -1.34501,-1 -3.40704,0 -3.38377,0.0544 -23.21018,-54.25 C 175.47089,203.3875 170.10597,190 169.52276,190 c -1.09006,0 -3.39765,6.05429 -20.01036,52.5 -9.98418,27.91373 -11.5754,31.5 -13.97644,31.5 -0.77986,0 -1.69604,0.45 -2.03596,1 -0.38803,0.62784 1.82295,1 5.94098,1 3.70601,0 6.55902,-0.43497 6.55902,-1 z m 11.4855,-42.75 c 0.38471,-0.9625 2.51487,-6.7 4.73368,-12.75 2.21882,-6.05 4.13899,-11.12429 4.26706,-11.27621 0.12807,-0.15192 2.05275,4.79808 4.27708,11 2.22433,6.20192 4.36068,12.06371 4.74744,13.02621 0.64086,1.59483 -0.15813,1.75 -9.01076,1.75 -8.85121,0 -9.65185,-0.15543 -9.0145,-1.75 z m 93.20195,42.31222 c -1.71764,-1.30222 -1.48201,-2.29534 4.5,-18.96669 l 6.31255,-17.5925 11,0.0126 11,0.0126 6.25394,17.23588 c 3.43966,9.47973 6.25216,17.57337 6.25,17.98587 -0.002,0.4125 -0.67894,0.75 -1.50394,0.75 -0.825,0 -1.5,0.45 -1.5,1 0,0.59649 3.83333,1 9.5,1 8.7253,0 12.24691,-1.0484 7.60185,-2.26312 -1.04399,-0.273 -2.59027,-1.56299 -3.43619,-2.86663 -1.28419,-1.97905 -13.53311,-34.71802 -26.98299,-72.12025 -1.73058,-4.8125 -3.65939,-8.75 -4.28624,-8.75 -0.62685,0 -4.65756,9.7875 -8.95713,21.75 -21.13939,58.8151 -21.86165,60.65977 -24.20701,61.82522 -4.13992,2.0572 -3.62479,2.42505 3.35104,2.39298 6.08296,-0.028 6.69819,-0.19745 5.10412,-1.40598 z M 263.48135,232.25 c 0.38243,-0.9625 2.53627,-6.90793 4.7863,-13.21207 2.25003,-6.30414 4.23924,-11.01727 4.42045,-10.47363 0.18122,0.54365 2.29269,6.48908 4.69218,13.21207 L 281.74297,234 h -9.47847 c -8.62534,0 -9.41589,-0.15751 -8.78315,-1.75 z M 207.25,175.34011 223,174.68688 v -4.84971 -4.84971 l -4.15004,3.00627 C 216.56744,169.64718 214.21095,171 213.61331,171 c -0.59764,0 1.289,-1.59983 4.19253,-3.55518 6.6118,-4.45265 9.05636,-8.94907 7.24405,-13.32437 -1.65632,-3.99871 -4.72662,-5.87474 -13.09093,-7.99888 -3.81195,-0.96805 -7.26649,-2.09577 -7.67676,-2.50604 -1.46898,-1.46898 10.29456,0.62905 14.02531,2.50142 3.40001,1.70639 3.96953,1.74887 5.32142,0.39697 0.83266,-0.83265 1.89552,-1.51392 2.36191,-1.51392 0.46639,0 3.348,-2.28487 6.40357,-5.07749 5.29166,-4.83628 5.50542,-4.93362 4.49987,-2.0491 -0.58063,1.66562 -2.87483,5.09503 -5.09821,7.62093 -2.22339,2.5259 -3.85373,4.78133 -3.62298,5.01208 1.237,1.23701 7.07642,-4.06529 9.29179,-8.43712 2.60099,-5.1328 3.38014,-11.0693 1.45283,-11.0693 -0.59526,0 -4.05077,2.925 -7.6789,6.5 -3.62813,3.575 -6.96609,6.5 -7.4177,6.5 C 223.3695,144 223,119.7 223,90 V 36 h -45 -45 v 69.59927 69.59927 l 13.92675,-0.33919 c 7.65971,-0.18655 14.25971,-0.006 14.66666,0.40073 0.91352,0.91351 24.56101,0.95496 45.65659,0.08 z m -60.00233,-3.21988 c -5.23314,-1.80784 -8.1937,-3.76915 -11.47543,-7.60221 -3.70239,-4.32437 -1.51499,-3.90238 3.16768,0.6111 3.64631,3.51458 6.59232,5.2848 11.25,6.76 3.47054,1.0992 5.41008,2.00913 4.31008,2.02207 -1.1,0.0129 -4.36355,-0.793 -7.25233,-1.79096 z M 209,172 c 0.825,-0.53316 1.95,-0.96937 2.5,-0.96937 0.55,0 0.325,0.43621 -0.5,0.96937 -0.825,0.53316 -1.95,0.96937 -2.5,0.96937 -0.55,0 -0.325,-0.43621 0.5,-0.96937 z m -43.14146,-11.00171 c -10.31721,-1.78147 -15.64734,-6.75009 -14.54281,-13.55648 0.28995,-1.78673 2.90465,-8.35458 5.81045,-14.59521 5.27239,-11.32322 5.28475,-11.37321 5.99708,-24.26506 l 0.71381,-12.91847 4.11529,-5.58154 c 6.65979,-9.03263 9.36099,-15.4686 8.82657,-21.03047 -1.29577,-13.48529 -14.52127,-28.2526 -23.66502,-26.42385 -4.3375,0.8675 -11.45999,7.64667 -15.10067,14.37279 -3.58003,6.61407 -4.02192,5.92404 -0.56941,-0.88916 2.642,-5.21374 8.72902,-12.16671 12.24043,-13.98178 6.01006,-3.10665 14.988,0.36851 19.40166,7.50996 1.14246,1.84854 2.51705,3.36098 3.05466,3.36098 0.5376,0 0.73203,0.3971 0.43206,0.88246 -0.29996,0.48535 0.27646,1.94785 1.28094,3.25 2.62407,3.40169 4.14789,8.47295 4.13665,13.76676 -0.0103,4.86226 -2.52416,10.82664 -8.17926,19.40629 -2.9305,4.44601 -3.22718,5.69129 -3.96586,16.64627 -0.8736,12.95602 -1.97014,17.02224 -7.89344,29.27087 -8.96548,18.53947 -3.4738,24.53908 21.54833,23.54136 6.6,-0.26317 10.425,-0.14286 8.5,0.26734 -6.1271,1.30565 -17.34312,1.79546 -22.14146,0.96694 z M 194,158 c 3.41917,-1.09501 6.04822,-1.09501 3.5,0 -1.1,0.47269 -2.9,0.8462 -4,0.83003 -1.60779,-0.0236 -1.50973,-0.1864 0.5,-0.83003 z m -59.91956,-13 c -0.01,-1.375 2.27489,-6.775 5.07646,-12 8.43393,-15.72946 9.52526,-18.23874 10.75519,-24.72932 1.34494,-7.09753 0.87876,-8.5415 -4.6041,-14.26113 C 141.00475,89.52049 135.45624,81.22484 134.60007,78 c -0.48968,-1.84438 -0.15099,-1.58214 1.29149,1 1.07537,1.925 4.27228,6.35519 7.10423,9.84488 11.82041,14.56575 11.90092,17.92076 0.8984,37.43847 -2.82139,5.00496 -6.1798,11.82619 -7.46312,15.15829 -1.56319,4.05875 -2.33903,5.23322 -2.35063,3.55836 z m 38.73206,1.31689 c 0.72187,-0.28887 1.58437,-0.25335 1.91667,0.0789 0.33229,0.33229 -0.25834,0.56864 -1.3125,0.52522 -1.16495,-0.048 -1.4019,-0.28494 -0.60417,-0.60416 z m 12,-2 c 0.72187,-0.28887 1.58437,-0.25335 1.91667,0.0789 0.33229,0.33229 -0.25834,0.56864 -1.3125,0.52522 -1.16495,-0.048 -1.4019,-0.28494 -0.60417,-0.60416 z m 7,-1 c 0.72187,-0.28887 1.58437,-0.25335 1.91667,0.0789 0.33229,0.33229 -0.25834,0.56864 -1.3125,0.52522 -1.16495,-0.048 -1.4019,-0.28494 -0.60417,-0.60416 z m 5.4375,-0.006 c 0.9625,-0.25152 2.5375,-0.25152 3.5,0 0.9625,0.25153 0.175,0.45733 -1.75,0.45733 -1.925,0 -2.7125,-0.2058 -1.75,-0.45733 z M 171.13618,67.63532 C 170.97887,65.48131 166.0024,56 165.02913,56 c -0.35916,0 -1.66871,1.3738 -2.91012,3.05289 -1.24141,1.6791 -3.35103,3.55133 -4.68806,4.16052 -1.33702,0.60919 -2.46258,1.82288 -2.50124,2.6971 -0.063,1.42567 -0.14033,1.42239 -0.75,-0.0318 -0.37384,-0.89172 -2.11816,-2.82398 -3.87626,-4.29392 -1.75811,-1.46994 -3.48345,-3.57655 -3.8341,-4.68135 -0.52393,-1.65076 -0.90289,-1.78851 -2.12654,-0.77297 -1.90306,1.57939 -5.31876,8.2446 -5.42176,10.5797 -0.0515,1.16695 -0.263,1.32926 -0.60781,0.46641 -0.80586,-2.01661 2.42681,-9.58373 5.21193,-12.20021 C 144.88632,53.69763 146,53.16417 146,53.79091 c 0,0.62673 1.39662,2.73017 3.10359,4.67431 2.16146,2.46176 3.95139,3.5348 5.89641,3.5348 1.94502,0 3.73495,-1.07304 5.89641,-3.5348 C 162.60338,56.52108 164,54.44098 164,53.84277 c 0,-2.085 3.13431,1.48877 5.63673,6.42707 1.36439,2.6925 2.29057,5.87076 2.05817,7.06281 -0.33934,1.7406 -0.44935,1.80021 -0.55872,0.30269 z"
     id="path871"
     inkscape:connector-curvature="0" />
</svg>
